<?xml version="1.0" encoding="utf-8"?>
<!-- Generator: Adobe Illustrator 19.0.0, SVG Export Plug-In . SVG Version: 6.00 Build 0)  -->
<svg version="1.1" xmlns="http://www.w3.org/2000/svg" xmlns:xlink="http://www.w3.org/1999/xlink" x="0px" y="0px"
	 viewBox="16 379 90 118.7" style="enable-background:new 16 379 90 118.7;" xml:space="preserve">
<style type="text/css">
	.st0{fill:#37B44A;}
	.st1{fill:#010101;}
	.st2{fill:#ED1C24;stroke:#000000;stroke-width:2;stroke-miterlimit:10;}
	.st3{fill:none;}
	.st4{fill:#FFFFFF;stroke:#000000;stroke-miterlimit:10;}
</style>
<g id="Lager_1">
	<g id="Lager_4">
		<g id="XMLID_1_">
			<g id="XMLID_16_">
				<path id="XMLID_20_" class="st0" d="M56.9,399.1c-1.3-1.8-2.7-3.6-4.1-5.4c-1.3-1.6-3.2-3.1-3.9-5.1c-1,1-2.1,2.1-3.1,3.1
					c3.5,0.7,6.6,1.6,9.4,4c3.2,2.7,1.9,6.2,3.3,9.7c1.2-0.9,2.4-1.9,3.7-2.8c-2.8-1.8-6-2.6-8.7-4.4c-2.3-1.6-3-4.1-5-6
					c-0.6,1.4-1.2,2.8-1.8,4.3c4,0.1,6.9,2.8,9.7,5.4c2.4,2.2,5.9-1.4,3.5-3.5c-3.9-3.5-7.8-6.7-13.3-6.9c-2.2-0.1-3.3,2.8-1.8,4.3
					c1.3,1.3,1.5,2.8,2.5,4.2c0.8,1.1,2.1,1.6,3.2,2.5c2.7,2.1,6,2.6,8.9,4.6c1.7,1.1,4.4-0.8,3.7-2.8c-0.8-2-0.5-4.2-0.9-6.3
					c-0.5-2.1-1.7-3.8-3.3-5.3c-3.5-3.3-7.4-4.7-12-5.7c-1.7-0.4-3.7,1.2-3.1,3.1c1.6,4.5,5.8,7.8,8.5,11.6
					C54.4,404.2,58.7,401.7,56.9,399.1L56.9,399.1z"/>
			</g>
		</g>
	</g>
	<g id="Lager_1_1_">
		<path id="XMLID_2_" class="st1" d="M61.7,411.4c-1,2.5-1.6,4.6-2,6.1c1,0.2,2.1-0.1,3.2,0c0.6,0,1.3,0.1,1.9,0.2
			c0.1-0.1,0.2-0.2,0.3-0.3c0,0,0,0-0.1,0c1.5-5.2,5.7-15.6,16.8-24.6c1.1-0.9,1.3-2.6,0.5-3.7c-0.9-1.2-2.4-1.4-3.6-0.5
			c-5.1,4.1-8.9,8.5-11.7,12.7c-0.7-3.9-2.2-8.7-5.6-12.2c-6.9-7.2-18.4-6.4-18.9-6.4c-1.2,0.1-2.2,1.1-2.3,2.4
			c0,0.5-0.8,12.6,6.1,19.8C50.9,410,57.7,411.2,61.7,411.4z M57.9,393c3.6,3.8,4.4,9.9,4.6,13.2c-3.2-0.2-9-1-12.6-4.8
			c-3.6-3.8-4.4-9.9-4.6-13.2C48.5,388.3,54.2,389.1,57.9,393z"/>
	</g>
	<g id="Lager_2">
		<path id="XMLID_85_" class="st2" d="M23,447.9V463c0,1.2,0.4,2.4,1.1,3.3h74.8c0.7-0.9,1.1-2.1,1.1-3.3v-15.1
			c0-1.2-0.4-2.4-1.1-3.3H24.1C23.4,445.5,23,446.7,23,447.9z M36.5,449.7c3.2,0,5.8,2.6,5.8,5.8c0,3.2-2.6,5.8-5.8,5.8
			s-5.8-2.6-5.8-5.8C30.7,452.3,33.3,449.7,36.5,449.7z"/>
		<path id="XMLID_72_" class="st2" d="M98.9,442c0.7-0.9,1.1-2.1,1.1-3.3v-15.2c0-3.3-2.7-5.9-5.9-5.9H28.9c-3.3,0-5.9,2.7-5.9,5.9
			v15.1c0,1.2,0.4,2.4,1.1,3.3L98.9,442L98.9,442z M36.5,425.3c3.2,0,5.8,2.6,5.8,5.8c0,3.2-2.6,5.8-5.8,5.8s-5.8-2.6-5.8-5.8
			C30.7,427.9,33.3,425.3,36.5,425.3z"/>
		<path id="XMLID_59_" class="st2" d="M24.1,469c-0.7,0.9-1.1,2.1-1.1,3.3v15.1c0,3.3,2.7,5.9,5.9,5.9h65.2c3.3,0,5.9-2.7,5.9-5.9
			v-15.1c0-1.2-0.4-2.4-1.1-3.3H24.1z M36.5,485.6c-3.2,0-5.8-2.6-5.8-5.8c0-3.2,2.6-5.8,5.8-5.8s5.8,2.6,5.8,5.8
			C42.3,483,39.7,485.6,36.5,485.6z"/>
		<line id="XMLID_58_" class="st3" x1="57.9" y1="417.6" x2="63.9" y2="417.8"/>
	</g>
</g>
<g id="Lager_2_1_">
	<path class="st4" d="M90.8,431.7c0.7,0,1.3,0.6,1.3,1.3c0,0.7-0.6,1.3-1.3,1.3s-1.3-0.6-1.3-1.3C89.5,432.3,90.1,431.7,90.8,431.7z
		"/>
	<path class="st4" d="M88.3,427.9c0.7,0,1.3,0.6,1.3,1.3c0,0.7-0.6,1.3-1.3,1.3s-1.3-0.6-1.3-1.3C87,428.5,87.6,427.9,88.3,427.9z"
		/>
	<path class="st4" d="M85.7,431.7c0.7,0,1.3,0.6,1.3,1.3c0,0.7-0.6,1.3-1.3,1.3s-1.3-0.6-1.3-1.3C84.4,432.3,85,431.7,85.7,431.7z"
		/>
	<path class="st4" d="M83.1,427.9c0.7,0,1.3,0.6,1.3,1.3c0,0.7-0.6,1.3-1.3,1.3s-1.3-0.6-1.3-1.3C81.8,428.5,82.4,427.9,83.1,427.9z
		"/>
	<path class="st4" d="M80.6,431.7c0.7,0,1.3,0.6,1.3,1.3c0,0.7-0.6,1.3-1.3,1.3s-1.3-0.6-1.3-1.3C79.3,432.3,79.9,431.7,80.6,431.7z
		"/>
	<path class="st4" d="M78,427.9c0.7,0,1.3,0.6,1.3,1.3c0,0.7-0.6,1.3-1.3,1.3s-1.3-0.6-1.3-1.3C76.7,428.5,77.3,427.9,78,427.9z"/>
	<path class="st4" d="M75.4,431.7c0.7,0,1.3,0.6,1.3,1.3c0,0.7-0.6,1.3-1.3,1.3s-1.3-0.6-1.3-1.3C74.1,432.3,74.7,431.7,75.4,431.7z
		"/>
	<path class="st4" d="M72.9,427.9c0.7,0,1.3,0.6,1.3,1.3c0,0.7-0.6,1.3-1.3,1.3s-1.3-0.6-1.3-1.3C71.6,428.5,72.2,427.9,72.9,427.9z
		"/>
	<path class="st4" d="M70.3,431.7c0.7,0,1.3,0.6,1.3,1.3c0,0.7-0.6,1.3-1.3,1.3S69,433.7,69,433C69,432.3,69.6,431.7,70.3,431.7z"/>
	<path class="st4" d="M67.7,427.9c0.7,0,1.3,0.6,1.3,1.3c0,0.7-0.6,1.3-1.3,1.3s-1.3-0.6-1.3-1.3C66.4,428.5,67,427.9,67.7,427.9z"
		/>
	<path class="st4" d="M92.1,456.1c0.7,0,1.3,0.6,1.3,1.3c0,0.7-0.6,1.3-1.3,1.3s-1.3-0.6-1.3-1.3C90.8,456.7,91.4,456.1,92.1,456.1z
		"/>
	<path class="st4" d="M89.6,452.3c0.7,0,1.3,0.6,1.3,1.3c0,0.7-0.6,1.3-1.3,1.3s-1.3-0.6-1.3-1.3C88.3,452.9,88.9,452.3,89.6,452.3z
		"/>
	<path class="st4" d="M87,456.1c0.7,0,1.3,0.6,1.3,1.3c0,0.7-0.6,1.3-1.3,1.3s-1.3-0.6-1.3-1.3C85.7,456.7,86.3,456.1,87,456.1z"/>
	<path class="st4" d="M84.4,452.3c0.7,0,1.3,0.6,1.3,1.3c0,0.7-0.6,1.3-1.3,1.3s-1.3-0.6-1.3-1.3C83.1,452.9,83.7,452.3,84.4,452.3z
		"/>
	<path class="st4" d="M81.9,456.1c0.7,0,1.3,0.6,1.3,1.3c0,0.7-0.6,1.3-1.3,1.3s-1.3-0.6-1.3-1.3C80.6,456.7,81.2,456.1,81.9,456.1z
		"/>
	<path class="st4" d="M79.3,452.3c0.7,0,1.3,0.6,1.3,1.3c0,0.7-0.6,1.3-1.3,1.3s-1.3-0.6-1.3-1.3C78,452.9,78.6,452.3,79.3,452.3z"
		/>
	<path class="st4" d="M76.7,456.1c0.7,0,1.3,0.6,1.3,1.3c0,0.7-0.6,1.3-1.3,1.3s-1.3-0.6-1.3-1.3C75.4,456.7,76,456.1,76.7,456.1z"
		/>
	<path class="st4" d="M74.2,452.3c0.7,0,1.3,0.6,1.3,1.3c0,0.7-0.6,1.3-1.3,1.3s-1.3-0.6-1.3-1.3C72.9,452.9,73.5,452.3,74.2,452.3z
		"/>
	<path class="st4" d="M71.6,456.1c0.7,0,1.3,0.6,1.3,1.3c0,0.7-0.6,1.3-1.3,1.3s-1.3-0.6-1.3-1.3C70.3,456.7,70.9,456.1,71.6,456.1z
		"/>
	<path class="st4" d="M69,452.3c0.7,0,1.3,0.6,1.3,1.3c0,0.7-0.6,1.3-1.3,1.3s-1.3-0.6-1.3-1.3C67.7,452.9,68.3,452.3,69,452.3z"/>
	<path class="st4" d="M93.3,480.4c0.7,0,1.3,0.6,1.3,1.3c0,0.7-0.6,1.3-1.3,1.3s-1.3-0.6-1.3-1.3C92,481,92.6,480.4,93.3,480.4z"/>
	<path class="st4" d="M90.8,476.6c0.7,0,1.3,0.6,1.3,1.3c0,0.7-0.6,1.3-1.3,1.3s-1.3-0.6-1.3-1.3C89.5,477.2,90.1,476.6,90.8,476.6z
		"/>
	<path class="st4" d="M88.2,480.4c0.7,0,1.3,0.6,1.3,1.3c0,0.7-0.6,1.3-1.3,1.3s-1.3-0.6-1.3-1.3C86.9,481,87.5,480.4,88.2,480.4z"
		/>
	<path class="st4" d="M85.6,476.6c0.7,0,1.3,0.6,1.3,1.3c0,0.7-0.6,1.3-1.3,1.3s-1.3-0.6-1.3-1.3C84.3,477.2,84.9,476.6,85.6,476.6z
		"/>
	<path class="st4" d="M83.1,480.4c0.7,0,1.3,0.6,1.3,1.3c0,0.7-0.6,1.3-1.3,1.3s-1.3-0.6-1.3-1.3C81.8,481,82.4,480.4,83.1,480.4z"
		/>
	<path class="st4" d="M80.5,476.6c0.7,0,1.3,0.6,1.3,1.3c0,0.7-0.6,1.3-1.3,1.3s-1.3-0.6-1.3-1.3C79.2,477.2,79.8,476.6,80.5,476.6z
		"/>
	<path class="st4" d="M77.9,480.4c0.7,0,1.3,0.6,1.3,1.3c0,0.7-0.6,1.3-1.3,1.3s-1.3-0.6-1.3-1.3C76.6,481,77.2,480.4,77.9,480.4z"
		/>
	<path class="st4" d="M75.4,476.6c0.7,0,1.3,0.6,1.3,1.3c0,0.7-0.6,1.3-1.3,1.3s-1.3-0.6-1.3-1.3C74.1,477.2,74.7,476.6,75.4,476.6z
		"/>
	<path class="st4" d="M72.8,480.4c0.7,0,1.3,0.6,1.3,1.3c0,0.7-0.6,1.3-1.3,1.3s-1.3-0.6-1.3-1.3C71.5,481,72.1,480.4,72.8,480.4z"
		/>
	<path class="st4" d="M70.2,476.6c0.7,0,1.3,0.6,1.3,1.3c0,0.7-0.6,1.3-1.3,1.3s-1.3-0.6-1.3-1.3C68.9,477.2,69.5,476.6,70.2,476.6z
		"/>
</g>
</svg>
