<?xml version="1.0" encoding="utf-8"?>
<!-- Generator: Adobe Illustrator 19.0.0, SVG Export Plug-In . SVG Version: 6.00 Build 0)  -->
<svg version="1.1" xmlns="http://www.w3.org/2000/svg" xmlns:xlink="http://www.w3.org/1999/xlink" x="0px" y="0px"
	 viewBox="0 0 532.5 261.4" style="enable-background:new 0 0 532.5 261.4;" xml:space="preserve">
<style type="text/css">
	.st0{fill:#37B44A;}
	.st1{fill:#010101;}
	.st2{fill:#ED1C24;stroke:#000000;stroke-width:2;stroke-miterlimit:10;}
	.st3{fill:none;}
	.st4{font-family:'Haettenschweiler';}
	.st5{font-size:105.647px;}
</style>
<g id="Lager_4">
	<g id="XMLID_1_">
		<g id="XMLID_16_">
			<path id="XMLID_20_" class="st0" d="M87.9,108.6c-1.3-1.8-2.7-3.6-4.1-5.4c-1.3-1.6-3.2-3.1-3.9-5.1c-1,1-2.1,2.1-3.1,3.1
				c3.5,0.7,6.6,1.6,9.4,4c3.2,2.7,1.9,6.2,3.3,9.7c1.2-0.9,2.4-1.9,3.7-2.8c-2.8-1.8-6-2.6-8.7-4.4c-2.3-1.6-3-4.1-5-6
				c-0.6,1.4-1.2,2.8-1.8,4.3c4,0.1,6.9,2.8,9.7,5.4c2.4,2.2,5.9-1.4,3.5-3.5c-3.9-3.5-7.8-6.7-13.3-6.9c-2.2-0.1-3.3,2.8-1.8,4.3
				c1.3,1.3,1.5,2.8,2.5,4.2c0.8,1.1,2.1,1.6,3.2,2.5c2.7,2.1,6,2.6,8.9,4.6c1.7,1.1,4.4-0.8,3.7-2.8c-0.8-2-0.5-4.2-0.9-6.3
				c-0.5-2.1-1.7-3.8-3.3-5.3c-3.5-3.3-7.4-4.7-12-5.7c-1.7-0.4-3.7,1.2-3.1,3.1c1.6,4.5,5.8,7.8,8.5,11.6
				C85.4,113.7,89.7,111.2,87.9,108.6L87.9,108.6z"/>
		</g>
	</g>
</g>
<g id="Lager_1">
	<path id="XMLID_2_" class="st1" d="M92.7,120.9c-1,2.5-1.6,4.6-2,6.1c1,0.2,2.1-0.1,3.2,0c0.6,0,1.3,0.1,1.9,0.2
		c0.1-0.1,0.2-0.2,0.3-0.3c0,0,0,0-0.1,0c1.5-5.2,5.7-15.6,16.8-24.6c1.1-0.9,1.3-2.6,0.5-3.7c-0.9-1.2-2.4-1.4-3.6-0.5
		c-5.1,4.1-8.9,8.5-11.7,12.7c-0.7-3.9-2.2-8.7-5.6-12.2c-6.9-7.2-18.4-6.4-18.9-6.4c-1.2,0.1-2.2,1.1-2.3,2.4
		c0,0.5-0.8,12.6,6.1,19.8C81.9,119.5,88.7,120.7,92.7,120.9z M88.9,102.5c3.6,3.8,4.4,9.9,4.6,13.2c-3.2-0.2-9-1-12.6-4.8
		c-3.6-3.8-4.4-9.9-4.6-13.2C79.5,97.8,85.2,98.6,88.9,102.5z"/>
</g>
<g id="Lager_2">
	<path id="XMLID_85_" class="st2" d="M54,157.4v15.1c0,1.2,0.4,2.4,1.1,3.3h74.8c0.7-0.9,1.1-2.1,1.1-3.3v-15.1
		c0-1.2-0.4-2.4-1.1-3.3H55.1C54.4,155,54,156.2,54,157.4z M120.7,165.6c0.7,0,1.3,0.6,1.3,1.3s-0.6,1.3-1.3,1.3s-1.3-0.6-1.3-1.3
		C119.5,166.2,120,165.6,120.7,165.6z M118.2,161.8c0.7,0,1.3,0.6,1.3,1.3c0,0.7-0.6,1.3-1.3,1.3s-1.3-0.6-1.3-1.3
		C116.9,162.4,117.5,161.8,118.2,161.8z M115.6,165.6c0.7,0,1.3,0.6,1.3,1.3s-0.6,1.3-1.3,1.3s-1.3-0.6-1.3-1.3
		C114.3,166.2,114.9,165.6,115.6,165.6z M113,161.8c0.7,0,1.3,0.6,1.3,1.3c0,0.7-0.6,1.3-1.3,1.3s-1.3-0.6-1.3-1.3
		C111.8,162.4,112.3,161.8,113,161.8z M110.5,165.6c0.7,0,1.3,0.6,1.3,1.3s-0.6,1.3-1.3,1.3s-1.3-0.6-1.3-1.3
		C109.2,166.2,109.8,165.6,110.5,165.6z M107.9,161.8c0.7,0,1.3,0.6,1.3,1.3c0,0.7-0.6,1.3-1.3,1.3s-1.3-0.6-1.3-1.3
		C106.6,162.4,107.2,161.8,107.9,161.8z M105.3,165.6c0.7,0,1.3,0.6,1.3,1.3s-0.6,1.3-1.3,1.3s-1.3-0.6-1.3-1.3
		C104.1,166.2,104.6,165.6,105.3,165.6z M102.8,161.8c0.7,0,1.3,0.6,1.3,1.3c0,0.7-0.6,1.3-1.3,1.3s-1.3-0.6-1.3-1.3
		C101.5,162.4,102.1,161.8,102.8,161.8z M100.2,165.6c0.7,0,1.3,0.6,1.3,1.3s-0.6,1.3-1.3,1.3s-1.3-0.6-1.3-1.3
		C98.9,166.2,99.5,165.6,100.2,165.6z M97.6,161.8c0.7,0,1.3,0.6,1.3,1.3c0,0.7-0.6,1.3-1.3,1.3s-1.3-0.6-1.3-1.3
		C96.4,162.4,96.9,161.8,97.6,161.8z M67.5,159.2c3.2,0,5.8,2.6,5.8,5.8c0,3.2-2.6,5.8-5.8,5.8s-5.8-2.6-5.8-5.8
		C61.7,161.8,64.3,159.2,67.5,159.2z"/>
	<path id="XMLID_72_" class="st2" d="M129.9,151.5c0.7-0.9,1.1-2.1,1.1-3.3V133c0-3.3-2.7-5.9-5.9-5.9H59.9c-3.3,0-5.9,2.7-5.9,5.9
		v15.1c0,1.2,0.4,2.4,1.1,3.3L129.9,151.5L129.9,151.5z M120.7,141.2c0.7,0,1.3,0.6,1.3,1.3s-0.6,1.3-1.3,1.3s-1.3-0.6-1.3-1.3
		S120,141.2,120.7,141.2z M118.2,137.4c0.7,0,1.3,0.6,1.3,1.3s-0.6,1.3-1.3,1.3s-1.3-0.6-1.3-1.3S117.5,137.4,118.2,137.4z
		 M115.6,141.2c0.7,0,1.3,0.6,1.3,1.3s-0.6,1.3-1.3,1.3s-1.3-0.6-1.3-1.3S114.9,141.2,115.6,141.2z M113,137.4
		c0.7,0,1.3,0.6,1.3,1.3s-0.6,1.3-1.3,1.3s-1.3-0.6-1.3-1.3S112.3,137.4,113,137.4z M110.5,141.2c0.7,0,1.3,0.6,1.3,1.3
		s-0.6,1.3-1.3,1.3s-1.3-0.6-1.3-1.3S109.8,141.2,110.5,141.2z M107.9,137.4c0.7,0,1.3,0.6,1.3,1.3s-0.6,1.3-1.3,1.3
		s-1.3-0.6-1.3-1.3S107.2,137.4,107.9,137.4z M105.3,141.2c0.7,0,1.3,0.6,1.3,1.3s-0.6,1.3-1.3,1.3s-1.3-0.6-1.3-1.3
		S104.6,141.2,105.3,141.2z M102.8,137.4c0.7,0,1.3,0.6,1.3,1.3s-0.6,1.3-1.3,1.3s-1.3-0.6-1.3-1.3S102.1,137.4,102.8,137.4z
		 M100.2,141.2c0.7,0,1.3,0.6,1.3,1.3s-0.6,1.3-1.3,1.3s-1.3-0.6-1.3-1.3S99.5,141.2,100.2,141.2z M97.6,137.4
		c0.7,0,1.3,0.6,1.3,1.3s-0.6,1.3-1.3,1.3s-1.3-0.6-1.3-1.3S96.9,137.4,97.6,137.4z M67.5,134.8c3.2,0,5.8,2.6,5.8,5.8
		c0,3.2-2.6,5.8-5.8,5.8s-5.8-2.6-5.8-5.8C61.7,137.4,64.3,134.8,67.5,134.8z"/>
	<path id="XMLID_59_" class="st2" d="M55.1,178.5c-0.7,0.9-1.1,2.1-1.1,3.3v15.1c0,3.3,2.7,5.9,5.9,5.9h65.2c3.3,0,5.9-2.7,5.9-5.9
		v-15.1c0-1.2-0.4-2.4-1.1-3.3H55.1z M67.5,195.1c-3.2,0-5.8-2.6-5.8-5.8c0-3.2,2.6-5.8,5.8-5.8s5.8,2.6,5.8,5.8
		C73.3,192.5,70.7,195.1,67.5,195.1z M97.6,188.7c-0.7,0-1.3-0.6-1.3-1.3c0-0.7,0.6-1.3,1.3-1.3s1.3,0.6,1.3,1.3
		C98.9,188.1,98.3,188.7,97.6,188.7z M100.2,192.6c-0.7,0-1.3-0.6-1.3-1.3c0-0.7,0.6-1.3,1.3-1.3s1.3,0.6,1.3,1.3
		C101.5,192,100.9,192.6,100.2,192.6z M102.8,188.7c-0.7,0-1.3-0.6-1.3-1.3c0-0.7,0.6-1.3,1.3-1.3s1.3,0.6,1.3,1.3
		C104.1,188.1,103.5,188.7,102.8,188.7z M105.3,192.6c-0.7,0-1.3-0.6-1.3-1.3c0-0.7,0.6-1.3,1.3-1.3s1.3,0.6,1.3,1.3
		C106.6,192,106,192.6,105.3,192.6z M107.9,188.7c-0.7,0-1.3-0.6-1.3-1.3c0-0.7,0.6-1.3,1.3-1.3s1.3,0.6,1.3,1.3
		C109.2,188.1,108.6,188.7,107.9,188.7z M110.5,192.6c-0.7,0-1.3-0.6-1.3-1.3c0-0.7,0.6-1.3,1.3-1.3s1.3,0.6,1.3,1.3
		C111.8,192,111.2,192.6,110.5,192.6z M113,188.7c-0.7,0-1.3-0.6-1.3-1.3c0-0.7,0.6-1.3,1.3-1.3s1.3,0.6,1.3,1.3
		C114.3,188.1,113.7,188.7,113,188.7z M115.6,192.6c-0.7,0-1.3-0.6-1.3-1.3c0-0.7,0.6-1.3,1.3-1.3s1.3,0.6,1.3,1.3
		C116.9,192,116.3,192.6,115.6,192.6z M118.2,188.7c-0.7,0-1.3-0.6-1.3-1.3c0-0.7,0.6-1.3,1.3-1.3s1.3,0.6,1.3,1.3
		C119.5,188.1,118.9,188.7,118.2,188.7z M120.7,192.6c-0.7,0-1.3-0.6-1.3-1.3c0-0.7,0.6-1.3,1.3-1.3s1.3,0.6,1.3,1.3
		C122,192,121.4,192.6,120.7,192.6z"/>
	<line id="XMLID_58_" class="st3" x1="88.9" y1="127.1" x2="94.9" y2="127.3"/>
</g>
<g id="Lager_3">
	<text id="XMLID_123_" transform="matrix(0.9656 0 0 1 133.601 201.938)" class="st4 st5">MATHUBBEN</text>
</g>
</svg>
